<svg xmlns="http://www.w3.org/2000/svg" viewBox="0 0 700.83 285.1"><defs><style>.cls-1,.cls-2{fill:#1d1d1b;}.cls-1{stroke:#1d1d1b;stroke-miterlimit:10;}</style></defs><g id="Capa_2" data-name="Capa 2"><g id="Capa_3" data-name="Capa 3"><polygon class="cls-1" points="2.1 186.81 85.05 0.5 127.04 0.58 210.29 187.09 168.15 187.02 106.08 35.27 44.01 186.89 2.1 186.81"/><path class="cls-1" d="M449.27.57,283,.54a44.16,44.16,0,0,0-29.11,11.55A43.66,43.66,0,0,0,241,35.29q0,20.51.07,41A39.35,39.35,0,0,0,253,100.79c12.25,11.52,27.5,10.5,30,10.3l124.13.13V152.3H241l.09,34.75,166-.06c4.09-.4,22.06-2.56,33.89-17.71a44.86,44.86,0,0,0,8.17-17q0-20.61,0-41.21a40.8,40.8,0,0,0-9.89-21.43C427.12,76.13,410,76.24,407.21,76.3L283,76.39l0-41.1h166.2Z"/><path class="cls-2" d="M59,231a13.09,13.09,0,0,0-8.54-3.12H0v56.6l50.46.06c.55.06,6.64.55,10.37-4.06A11.29,11.29,0,0,0,63.24,274q0-17.77,0-35.56A13,13,0,0,0,59,231Zm-8.54,43H12.74V238.45H50.49Z"/><polygon class="cls-1" points="497.38 227.91 560.65 227.91 560.66 238.46 510.15 238.46 510.17 250.93 560.68 250.93 560.66 261.5 510.15 261.5 510.14 274.02 560.68 274.44 560.68 284.6 497.41 284.6 497.38 227.91"/><polygon class="cls-1" points="70.29 227.84 133.56 227.84 133.57 238.39 83.06 238.39 83.08 250.85 133.59 250.85 133.57 261.43 83.06 261.43 83.05 273.95 133.59 274.37 133.59 284.53 70.32 284.53 70.29 227.84"/><polygon class="cls-1" points="213.91 227.91 277.18 227.91 277.18 238.46 226.68 238.46 226.69 250.93 277.2 250.93 277.18 261.5 226.67 261.5 226.66 274.02 277.2 274.44 277.2 284.6 213.93 284.6 213.91 227.91"/><polygon class="cls-1" points="141.94 227.95 154.7 227.94 173.59 274.06 192.42 227.95 205.23 227.95 179.94 284.56 167.18 284.54 141.94 227.95"/><polygon class="cls-1" points="285.05 227.88 285.05 284.53 348.32 284.53 348.3 273.99 297.78 273.99 297.79 227.87 285.05 227.88"/><path class="cls-1" d="M489.14,238.54a11.85,11.85,0,0,0-1.76-4.85c-3.45-5.3-10.16-5.66-11-5.7H425.89v56.59l12.74,0v-23l37.73,0a13.93,13.93,0,0,0,9.57-4.25,13.39,13.39,0,0,0,3.24-6.36ZM438.62,251v-12.5h37.73v12.53Z"/><path class="cls-1" d="M630.55,251l0-12.47a12.6,12.6,0,0,0-2.69-6c-3.68-4.43-9.23-4.52-10.11-4.52H567.28v56.65l12.74,0v-23h25.23l6.27,23.06h19l-12.77-23a13.37,13.37,0,0,0,9.52-4A12.83,12.83,0,0,0,630.55,251ZM580,251v-12.5h37.72V251Z"/><path class="cls-1" d="M405.85,227.94H368.13a13,13,0,0,0-9.94,4.16,12.21,12.21,0,0,0-2.82,6.4v35.56a11.79,11.79,0,0,0,3.28,7.15,12.16,12.16,0,0,0,9.48,3.35l37.73,0c.76,0,7,0,10.59-4.86a11.76,11.76,0,0,0,2.19-5.68V238.49a12.37,12.37,0,0,0-3.65-7.23A12.62,12.62,0,0,0,405.85,227.94Zm-37.73,46.11,0-35.56h37.71l0,35.57Z"/><path class="cls-1" d="M700.33,227.93H649.79a13.47,13.47,0,0,0-8.84,3.51,13.23,13.23,0,0,0-3.91,7q0,6.24,0,12.47a11.92,11.92,0,0,0,3.63,7.44,12.17,12.17,0,0,0,9.1,3.13l37.73,0V274H637l0,10.56,50.46,0a15.08,15.08,0,0,0,10.3-5.38A13.63,13.63,0,0,0,700.3,274q0-6.26,0-12.52a12.45,12.45,0,0,0-3-6.51,13,13,0,0,0-9.76-4.06l-37.75,0V238.48h50.51Z"/><path class="cls-1" d="M492.13.65h166c3.69.16,18.49,1.23,30.34,13.18a44.86,44.86,0,0,1,11.76,21.54q0,20.51.07,41a40,40,0,0,1-10.05,22.29c-12.33,13.39-29.57,12.76-32.11,12.63l-124.1-.13L534,152.38H700.24l0,34.48-166.16.07c-3.17,0-17.48-.13-29.37-11.23a42.45,42.45,0,0,1-12.63-23.32q0-20.61,0-41.21A41,41,0,0,1,503.13,88.5c12.23-12.5,28.26-12.22,31-12.12h124.2l-.16-41-166.1,0Z"/></g></g></svg>