<svg xmlns="http://www.w3.org/2000/svg" viewBox="0 0 700.6 260.61"><defs><style>.cls-1,.cls-2{fill:#1d1d1b;}.cls-1{stroke:#1d1d1b;stroke-miterlimit:10;}</style></defs><g id="Capa_2" data-name="Capa 2"><g id="Capa_3" data-name="Capa 3"><path class="cls-1" d="M627.08,235.06v-9.27a9.26,9.26,0,0,0-2-4.49,10.05,10.05,0,0,0-7.52-3.37H580v42.18l9.47,0V242.93h18.4l9.65,17.13,9.5.05-9.5-17.18a9.85,9.85,0,0,0,7.08-2.92A9.45,9.45,0,0,0,627.08,235.06Zm-37.57,0v-9.31h28.06v9.33Z"/><polygon class="cls-1" points="1 186.81 83.95 0.5 125.94 0.58 209.19 187.09 167.05 187.02 104.98 35.27 42.92 186.89 1 186.81"/><path class="cls-1" d="M448.18.57l-166.3,0a44.13,44.13,0,0,0-29.1,11.55,43.52,43.52,0,0,0-12.86,23.2l.06,41a39.33,39.33,0,0,0,12,24.49c12.24,11.52,27.49,10.5,30,10.3l124.13.13V152.3H239.9l.08,34.75L406,187c4.09-.4,22.06-2.56,33.89-17.71a44.86,44.86,0,0,0,8.17-17q0-20.61,0-41.21a40.8,40.8,0,0,0-9.89-21.43C426,76.13,408.86,76.24,406.11,76.3l-124.22.09,0-41.1h166.2Z"/><path class="cls-2" d="M43.89,220.07a9.72,9.72,0,0,0-6.36-2.32H0v42.1l37.54.05c.4,0,4.93.4,7.71-3A8.33,8.33,0,0,0,47,252.05q0-13.23,0-26.45A9.67,9.67,0,0,0,43.89,220.07Zm-6.36,32H9.47V225.59H37.55Z"/><polygon class="cls-1" points="507.28 217.75 554.31 217.75 554.31 225.59 516.77 225.59 516.78 234.87 554.33 234.87 554.31 242.73 516.76 242.73 516.76 252.05 554.33 252.36 554.33 259.92 507.3 259.92 507.28 217.75"/><polygon class="cls-1" points="72.32 217.69 119.35 217.69 119.35 225.54 81.81 225.54 81.82 234.82 119.37 234.82 119.35 242.68 81.81 242.68 81.8 252 119.37 252.31 119.37 259.87 72.34 259.87 72.32 217.69"/><polygon class="cls-1" points="218.23 217.75 265.26 217.75 265.27 225.59 227.72 225.59 227.73 234.87 265.28 234.87 265.27 242.73 227.72 242.73 227.71 252.05 265.28 252.36 265.28 259.92 218.25 259.92 218.23 217.75"/><polygon class="cls-1" points="145.62 217.75 155.11 217.74 169.15 252.1 183.15 217.75 192.67 217.75 173.87 259.92 164.39 259.9 145.62 217.75"/><polygon class="cls-1" points="291.16 217.71 291.16 259.88 338.21 259.88 338.19 252.04 300.62 252.04 300.63 217.71 291.16 217.71"/><path class="cls-1" d="M482,225.64a8.8,8.8,0,0,0-1.31-3.62c-2.56-4-7.55-4.22-8.2-4.24H435v42.16h9.47V242.8l28,0a10.38,10.38,0,0,0,7.12-3.17,9.93,9.93,0,0,0,2.41-4.74Zm-37.56,9.3v-9.32h28V235Z"/><path class="cls-1" d="M401,217.76H373a9.7,9.7,0,0,0-7.39,3.09,9.17,9.17,0,0,0-2.09,4.77v26.47a8.77,8.77,0,0,0,2.44,5.32,9.06,9.06,0,0,0,7.05,2.49l28,0c.56,0,5.19,0,7.87-3.62a8.73,8.73,0,0,0,1.63-4.22V225.61a9.26,9.26,0,0,0-2.72-5.38A9.36,9.36,0,0,0,401,217.76ZM373,252.08V225.61h28l0,26.47Z"/><path class="cls-1" d="M700.1,217.76H662.54a9.69,9.69,0,0,0-9.48,7.86c0,3.09,0,6.18,0,9.27a8.9,8.9,0,0,0,2.7,5.54,9,9,0,0,0,6.77,2.33l28,0v9.29H653.05l0,7.86,37.51,0a11.16,11.16,0,0,0,7.66-4,10.13,10.13,0,0,0,1.84-3.84c0-3.11,0-6.21,0-9.32a9.16,9.16,0,0,0-2.24-4.84,9.71,9.71,0,0,0-7.25-3l-28.06,0v-9.29h37.55Z"/><path class="cls-1" d="M491,.65h166c3.69.16,18.49,1.23,30.34,13.18a44.86,44.86,0,0,1,11.76,21.54q0,20.51.07,41a39.83,39.83,0,0,1-10.05,22.29c-12.32,13.39-29.57,12.76-32.11,12.63L533,111.17l-.05,41.21H699.14l0,34.48L533,186.93c-3.17,0-17.48-.13-29.37-11.23A42.45,42.45,0,0,1,491,152.38q0-20.61,0-41.21A41.07,41.07,0,0,1,502,88.5C514.26,76,530.3,76.28,533,76.38h124.2l-.16-41-166.1,0Z"/></g></g></svg>