<svg xmlns="http://www.w3.org/2000/svg" viewBox="0 0 701.1 260.61"><defs><style>.cls-1{fill:#fff;stroke:#fff;stroke-miterlimit:10;}</style></defs><g id="Capa_2" data-name="Capa 2"><g id="Capa_3" data-name="Capa 3"><path class="cls-1" d="M627.58,235.06v-9.27a9.26,9.26,0,0,0-2-4.49,10.05,10.05,0,0,0-7.52-3.37H580.54v42.18l9.47,0V242.93h18.4l9.65,17.13,9.5.05-9.5-17.18a9.85,9.85,0,0,0,7.08-2.92A9.45,9.45,0,0,0,627.58,235.06Zm-37.57,0v-9.31h28.06v9.33Z"/><polygon class="cls-1" points="1.5 186.81 84.45 0.5 126.44 0.58 209.69 187.09 167.55 187.02 105.48 35.27 43.42 186.89 1.5 186.81"/><path class="cls-1" d="M448.68.57l-166.3,0a44.13,44.13,0,0,0-29.1,11.55,43.52,43.52,0,0,0-12.86,23.2l.06,41a39.33,39.33,0,0,0,12,24.49c12.24,11.52,27.49,10.5,30,10.3l124.13.13V152.3H240.4l.08,34.75,166-.06c4.09-.4,22.06-2.56,33.89-17.71a44.86,44.86,0,0,0,8.17-17q0-20.61,0-41.21a40.8,40.8,0,0,0-9.89-21.43c-12.2-13.53-29.36-13.42-32.11-13.36l-124.22.09,0-41.1h166.2Z"/><path class="cls-1" d="M44.39,220.07A9.72,9.72,0,0,0,38,217.75H.5v42.1l37.54.05c.4,0,4.93.4,7.71-3a8.33,8.33,0,0,0,1.79-4.82q0-13.23,0-26.45A9.67,9.67,0,0,0,44.39,220.07Zm-6.36,32H10V225.59H38.05Z"/><polygon class="cls-1" points="507.78 217.75 554.81 217.75 554.81 225.59 517.27 225.59 517.28 234.87 554.83 234.87 554.81 242.73 517.26 242.73 517.26 252.05 554.83 252.36 554.83 259.92 507.8 259.92 507.78 217.75"/><polygon class="cls-1" points="72.82 217.69 119.85 217.69 119.85 225.54 82.31 225.54 82.32 234.82 119.87 234.82 119.85 242.68 82.31 242.68 82.3 252 119.87 252.31 119.87 259.87 72.84 259.87 72.82 217.69"/><polygon class="cls-1" points="218.73 217.75 265.76 217.75 265.77 225.59 228.22 225.59 228.23 234.87 265.78 234.87 265.77 242.73 228.22 242.73 228.21 252.05 265.78 252.36 265.78 259.92 218.75 259.92 218.73 217.75"/><polygon class="cls-1" points="146.12 217.75 155.61 217.74 169.65 252.1 183.65 217.75 193.17 217.75 174.37 259.92 164.89 259.9 146.12 217.75"/><polygon class="cls-1" points="291.66 217.71 291.66 259.88 338.71 259.88 338.69 252.04 301.12 252.04 301.13 217.71 291.66 217.71"/><path class="cls-1" d="M482.54,225.64a8.8,8.8,0,0,0-1.31-3.62c-2.56-4-7.55-4.22-8.2-4.24H435.51v42.16H445V242.8l28,0a10.38,10.38,0,0,0,7.12-3.17,9.93,9.93,0,0,0,2.41-4.74ZM445,234.94v-9.32h28V235Z"/><path class="cls-1" d="M401.51,217.76H373.46a9.7,9.7,0,0,0-7.39,3.09,9.17,9.17,0,0,0-2.09,4.77v26.47a8.77,8.77,0,0,0,2.44,5.32,9.06,9.06,0,0,0,7.05,2.49l28,0c.56,0,5.19,0,7.87-3.62a8.73,8.73,0,0,0,1.63-4.22V225.61a9.26,9.26,0,0,0-2.72-5.38A9.36,9.36,0,0,0,401.51,217.76Zm-28.05,34.32V225.61h28l0,26.47Z"/><path class="cls-1" d="M700.6,217.76H663a9.69,9.69,0,0,0-9.48,7.86c0,3.09,0,6.18,0,9.27a8.9,8.9,0,0,0,2.7,5.54,9,9,0,0,0,6.77,2.33l28,0v9.29H653.55l0,7.86,37.51,0a11.16,11.16,0,0,0,7.66-4,10.13,10.13,0,0,0,1.84-3.84c0-3.11,0-6.21,0-9.32a9.16,9.16,0,0,0-2.24-4.84,9.71,9.71,0,0,0-7.25-3l-28.06,0v-9.29h37.55Z"/><path class="cls-1" d="M491.53.65h166c3.69.16,18.49,1.23,30.34,13.18a44.86,44.86,0,0,1,11.76,21.54q0,20.51.07,41a39.83,39.83,0,0,1-10.05,22.29c-12.32,13.39-29.57,12.76-32.11,12.63l-124.1-.13-.05,41.21H699.64l0,34.48-166.17.07c-3.17,0-17.48-.13-29.37-11.23a42.45,42.45,0,0,1-12.63-23.32q0-20.61,0-41.21A41.07,41.07,0,0,1,502.53,88.5c12.23-12.5,28.27-12.22,31-12.12h124.2l-.16-41-166.1,0Z"/></g></g></svg>